<?xml version="1.0" encoding="utf-8"?>
<!-- Generator: Adobe Illustrator 21.1.0, SVG Export Plug-In . SVG Version: 6.00 Build 0)  -->
<svg version="1.1" id="Layer_1" xmlns="http://www.w3.org/2000/svg" xmlns:xlink="http://www.w3.org/1999/xlink" x="0px" y="0px"
	 viewBox="0 0 100 100" style="enable-background:new 0 0 100 100;" xml:space="preserve">
<style type="text/css">
	.st0{fill:#F96302;}
	.st1{fill:#FF9901;}
	.st2{fill:#FFFFFF;}
</style>
<g>
	<g>
		<polygon class="st0" points="100,74.7 0.1,93 0.1,18.5 100,0.2 		"/>
		<polygon class="st1" points="100,74.7 16.4,97.3 16.5,90 		"/>
	</g>
</g>
<g>
	<path class="st2" d="M6.9,57.6l14.4-29.2l10.8-2L31.5,53l4-0.7l-0.2,8.1l-4,0.7l-0.2,8.5l-9.3,1.8l0.2-8.5L6.7,65.7L6.9,57.6z
		 M22.5,40l-0.1,0l-7.5,16.1l7.2-1.4L22.5,40z"/>
	<path class="st2" d="M45.7,49.5l-7.8-14.7l9.7-1.8l3.6,9.3l4.2-10.8l9.7-1.8l-8.4,17.8l8.2,15.8l-9.7,1.8L51.1,55l-4.8,11.8
		l-9.7,1.8L45.7,49.5z"/>
	<path class="st2" d="M77.1,48.1c-0.1,3.9,0.5,7.1,3.6,6.5c2.6-0.5,3.9-2.2,4-7.2c0.1-5.7-1.2-6.8-5.1-6l-2.4,0.5l0.1-6.6l2.8-0.5
		c3.2-0.6,4.4-3.1,4.5-7.4c0.1-3.5-0.9-4.9-3.2-4.4c-2.2,0.4-3.9,2.1-4.1,7.1l-9,1.7c0.1-4.4,1.2-7.8,3.5-10.3
		c2.3-2.6,5.7-4.3,10.4-5.2c8.3-1.6,12.3,1.4,12.1,9.8c-0.1,4.5-2.3,8.3-6.2,10l0,0.1c5.1,0.2,7,3,6.8,9.3
		c-0.2,9.5-6.2,14.4-13.7,15.8c-8.4,1.6-13.9,0-13.6-11.2L77.1,48.1z"/>
</g>
</svg>
